<svg xmlns="http://www.w3.org/2000/svg" xmlns:xlink="http://www.w3.org/1999/xlink" width="615.485" height="453.2" viewBox="0 0 615.485 453.2">
  <defs>
    <radialGradient id="radial-gradient" cx="0.5" cy="0.5" r="0.951" gradientTransform="matrix(0.599, 0.526, -0.26, 0.599, 0.331, -0.062)" gradientUnits="objectBoundingBox">
      <stop offset="0" stop-color="#ceedff"/>
      <stop offset="1" stop-color="#f2f6fa"/>
    </radialGradient>
    <linearGradient id="linear-gradient" x1="0.5" y1="0" x2="0.5" y2="1" gradientTransform="matrix(1, 0, 0, 1, 0, 0)" xlink:href="#radial-gradient"/>
    <linearGradient id="linear-gradient-2" x1="0.5" x2="1.171" y2="1.689" gradientUnits="objectBoundingBox">
      <stop offset="0" stop-color="#00ffc5"/>
      <stop offset="1" stop-color="#00654e"/>
    </linearGradient>
    <linearGradient id="linear-gradient-3" x1="0.088" y1="0.062" x2="1.824" y2="1.985" gradientUnits="objectBoundingBox">
      <stop offset="0" stop-color="#2ffdce"/>
      <stop offset="1" stop-color="#00654e"/>
    </linearGradient>
    <linearGradient id="linear-gradient-4" x1="0.009" y1="0.02" x2="1.074" y2="1.059" gradientUnits="objectBoundingBox">
      <stop offset="0" stop-color="#5c79be"/>
      <stop offset="1" stop-color="#203c7f"/>
    </linearGradient>
    <linearGradient id="linear-gradient-5" x1="1" y1="0.588" x2="0" y2="0.5" gradientUnits="objectBoundingBox">
      <stop offset="0" stop-color="#3e64bf"/>
      <stop offset="1" stop-color="#6587d9"/>
    </linearGradient>
    <linearGradient id="linear-gradient-8" x1="0.5" x2="0.5" y2="1" gradientUnits="objectBoundingBox">
      <stop offset="0" stop-color="#a1deff"/>
      <stop offset="1" stop-color="#1caffd"/>
    </linearGradient>
  </defs>
  <g id="Group_2241" data-name="Group 2241" transform="translate(-20.675 -943.4)">
    <path id="Path_1168" data-name="Path 1168" d="M-4636.915-1147.9s187.236,65.2,255.962,33.482,74.011-193.844,33.48-246.71-162.123-72.25-209.7-123.355-185.034-77.537-252-28.2-169.173,132.166-111.02,216.752,133.929,79.3,169.171,107.495S-4636.915-1147.9-4636.915-1147.9Z" transform="translate(4958.099 2482.312)" fill="url(#radial-gradient)"/>
    <g id="Group_2240" data-name="Group 2240">
      <g id="Group_2238" data-name="Group 2238">
        <g id="Group_2239" data-name="Group 2239">
          <g id="Group_2237" data-name="Group 2237">
            <path id="Path_1167" data-name="Path 1167" d="M-4666.747-1186.712s168.649,58.729,230.552,30.158,66.664-174.6,30.157-222.219-146.029-65.078-188.885-111.109-166.666-69.84-226.979-25.4-152.378,119.045-100,195.235,120.634,71.427,152.377,96.824S-4666.747-1186.712-4666.747-1186.712Z" transform="translate(5002.199 2545.316)" fill="url(#linear-gradient)"/>
          </g>
        </g>
      </g>
    </g>
    <g id="plant" transform="translate(267.924 1000.404)">
      <path id="Path_1142" data-name="Path 1142" d="M-7939.832-2712.633s-10.081.545-14.577-6.4-3.405-9.671-1.906-11.443,9.124-.272,12.669,5.041S-7939.832-2712.633-7939.832-2712.633Z" transform="translate(7957.62 2842.91)" fill="#00c99b"/>
      <path id="Path_1143" data-name="Path 1143" d="M17.788,18.555s-10.081.545-14.576-6.4S-.194,2.48,1.3.709s9.127-.272,12.669,5.04S17.788,18.555,17.788,18.555Z" transform="translate(46.886 107.04) rotate(112)" fill="#00c99b"/>
      <path id="Path_1144" data-name="Path 1144" d="M17.788,18.555s-10.081.545-14.576-6.4S-.194,2.48,1.3.709s9.127-.272,12.669,5.04S17.788,18.555,17.788,18.555Z" transform="translate(3.906 92.027) rotate(-21)" fill="#00c99b"/>
      <path id="Path_1146" data-name="Path 1146" d="M17.788,18.555s-10.081.545-14.576-6.4S-.194,2.48,1.3.709s9.127-.272,12.669,5.04S17.788,18.555,17.788,18.555Z" transform="matrix(-0.391, 0.921, -0.921, -0.391, 46.967, 54.632)" fill="#00c99b"/>
      <path id="Path_1148" data-name="Path 1148" d="M-7939.833-2712.632s-10.08.544-14.576-6.4-3.406-9.672-1.907-11.443,9.127-.273,12.669,5.041S-7939.833-2712.632-7939.833-2712.632Z" transform="translate(7961.196 2765.775)" fill="#00c99b"/>
      <path id="Path_1149" data-name="Path 1149" d="M17.788,18.555s-10.081.545-14.576-6.4S-.194,2.48,1.3.709s9.127-.272,12.669,5.04S17.788,18.555,17.788,18.555Z" transform="translate(47.311 30.716) rotate(111)" fill="#00c99b"/>
      <path id="Path_1150" data-name="Path 1150" d="M17.788,18.555s-10.081.545-14.576-6.4S-.194,2.48,1.3.709s9.127-.272,12.669,5.04S17.788,18.555,17.788,18.555Z" transform="translate(36.136 0) rotate(56)" fill="#00c99b"/>
      <path id="Path_1147" data-name="Path 1147" d="M17.788,18.555s-10.081.545-14.576-6.4S-.194,2.48,1.3.709s9.127-.272,12.669,5.04S17.788,18.555,17.788,18.555Z" transform="translate(2.884 64.441) rotate(-21)" fill="#00c99b"/>
      <path id="Path_1145" data-name="Path 1145" d="M17.788,18.555s-10.081.545-14.576-6.4S-.194,2.48,1.3.709s9.127-.272,12.669,5.04S17.788,18.555,17.788,18.555Z" transform="matrix(-0.342, 0.94, -0.94, -0.342, 51.82, 81.084)" fill="#00c99b"/>
      <path id="Path_1141" data-name="Path 1141" d="M-7928.4-2792.239s18.8-31.878,11.851-56.4-8.172-31.468,4.087-54.762" transform="translate(7943.326 2927.147)" fill="none" stroke="#278973" stroke-linecap="round" stroke-width="2"/>
      <ellipse id="Ellipse_256" data-name="Ellipse 256" cx="1.533" cy="3.576" rx="1.533" ry="3.576" transform="matrix(0.809, -0.588, 0.588, 0.809, 5.757, 118.811)" fill="#009372"/>
      <ellipse id="Ellipse_257" data-name="Ellipse 257" cx="1.533" cy="3.576" rx="1.533" ry="3.576" transform="matrix(0.259, 0.966, -0.966, 0.259, 38.21, 109.202)" fill="#009372"/>
      <ellipse id="Ellipse_258" data-name="Ellipse 258" cx="1.533" cy="3.576" rx="1.533" ry="3.576" transform="translate(18.581 97.765) rotate(120)" fill="#009372"/>
      <ellipse id="Ellipse_259" data-name="Ellipse 259" cx="1.533" cy="3.576" rx="1.533" ry="3.576" transform="translate(42.591 82.95) rotate(60)" fill="#009372"/>
      <ellipse id="Ellipse_260" data-name="Ellipse 260" cx="1.533" cy="3.576" rx="1.533" ry="3.576" transform="translate(18.581 70.179) rotate(120)" fill="#009372"/>
      <ellipse id="Ellipse_261" data-name="Ellipse 261" cx="1.533" cy="3.576" rx="1.533" ry="3.576" transform="matrix(0.407, 0.914, -0.914, 0.407, 37.796, 56.647)" fill="#009372"/>
      <ellipse id="Ellipse_262" data-name="Ellipse 262" cx="1.533" cy="3.576" rx="1.533" ry="3.576" transform="matrix(-0.755, 0.656, -0.656, -0.755, 16.178, 45.358)" fill="#009372"/>
      <ellipse id="Ellipse_263" data-name="Ellipse 263" cx="1.533" cy="3.576" rx="1.533" ry="3.576" transform="translate(38.356 32.683) rotate(67)" fill="#009372"/>
      <ellipse id="Ellipse_264" data-name="Ellipse 264" cx="1.533" cy="3.576" rx="1.533" ry="3.576" transform="translate(33.2 9.006) rotate(17)" fill="#009372"/>
    </g>
    <g id="big_leaf" data-name="big leaf" transform="translate(161.173 1076.467)">
      <path id="Path_1151" data-name="Path 1151" d="M-8072.7-2586.554s-32.049-46.095-27.659-93.946,20.2-54.877-10.977-115.9c0,0,3.513,41.706-26.337,78.583s-11.416,106.24,13.606,122.923a194.574,194.574,0,0,0,51.366,23.706Z" transform="translate(8153.092 2796.4)" fill="url(#linear-gradient-2)"/>
      <ellipse id="Ellipse_265" data-name="Ellipse 265" cx="12.073" cy="30.456" rx="12.073" ry="30.456" transform="translate(18.709 89.668)" fill="#00a27d"/>
    </g>
    <g id="small_leaf" data-name="small leaf" transform="translate(139 1225.362)">
      <path id="Path_1152" data-name="Path 1152" d="M-8095.044-2433.531s-42.29,24.1-74.777-3.117-15.217-42.54-19.171-61.417-13.608-21.951-13.608-21.951,36.877-4.829,43.461,15.365,1.755,40.827,64.1,57.51Z" transform="translate(8202.601 2520.521)" fill="url(#linear-gradient-3)"/>
      <ellipse id="Ellipse_266" data-name="Ellipse 266" cx="7.134" cy="17.835" rx="7.134" ry="17.835" transform="translate(28.505 55.375) rotate(-45)" fill="#00a27d"/>
    </g>
    <g id="credit_card" data-name="credit card" transform="translate(232.565 1135.404)">
      <rect id="Rectangle_720" data-name="Rectangle 720" width="295.782" height="186.03" rx="12" transform="translate(0 0)" fill="url(#linear-gradient-4)"/>
      <rect id="Rectangle_721" data-name="Rectangle 721" width="295.782" height="35.121" transform="translate(0 39.511)" fill="url(#linear-gradient-5)"/>
      <rect id="Rectangle_722" data-name="Rectangle 722" width="238.162" height="17.012" transform="translate(29.084 93.289)" fill="#fff"/>
      <ellipse id="Ellipse_255" data-name="Ellipse 255" cx="22.499" cy="22.499" rx="22.499" ry="22.499" transform="translate(29.084 122.959)" fill="#39569b"/>
    </g>
    <g id="girl" transform="translate(451.812 1123.254)">
      <path id="Path_1128" data-name="Path 1128" d="M671.11,3514.133s-15.851,19.154-3.963,62.085h46.894s7.265-47.554,0-62.085Z" transform="translate(-619.449 -3447.148)" fill="#fff"/>
      <path id="Path_1119" data-name="Path 1119" d="M338.567,3472.814s1.734-3.467,7.6-9.247,9.247-9.412,8.916-21.713-1.548-31.207,11.5-34.592,19.649.413,23.034,4.376,4.788,32.342,10.32,44.644,8.338,13.787,8.338,13.787Z" transform="translate(-304.057 -3405.952)" fill="#1f2148"/>
      <path id="Path_1120" data-name="Path 1120" d="M377.443,3487.218s-2.807,4.871-6.275,5.779-3.22,17.421.66,23.86,8.008,10.567,16.347,10.732,17.007-5.036,19.154-13.705,2.229-16.057,1.816-17.791-8.338-3.633-9.825-6.274a14.561,14.561,0,0,1-1.734-5.119Z" transform="translate(-315.544 -3435.939)" fill="#ffc6d1"/>
      <path id="Path_1121" data-name="Path 1121" d="M378.635,3487.218s-2.807,4.871-6.275,5.779,12.095,2.6,17.874.97,11.765-1.507,10.279-4.149a14.561,14.561,0,0,1-1.734-5.119Z" transform="translate(-316.736 -3435.939)" fill="#ffa1b2"/>
      <path id="Path_1118" data-name="Path 1118" d="M372.3,3453.756s.66,12.962,2.89,15.686,8.421,9.825,13.21,9.412,13.457-7.926,14.283-16.595,0-13.126,0-13.126-8.669,5.242-16.512,5.655A53.7,53.7,0,0,1,372.3,3453.756Z" transform="translate(-316.903 -3422.396)" fill="#ffc6d1"/>
      <path id="Path_1122" data-name="Path 1122" d="M355.055,3497.65s-9.439,3.288-14.392,4.675-9.808,6.836-11.492,15.752-2.675,24.371-2.873,29.226a108.914,108.914,0,0,1-1.189,15.059c-.991,6.043.293,10.926,2.175,12.512s20.227-20.165,20.227-20.165a101.2,101.2,0,0,1-1.375-16.3C346.26,3530.684,353.371,3509.86,355.055,3497.65Z" transform="translate(-298.801 -3440.871)" fill="url(#linear-gradient-4)"/>
      <path id="Path_1123" data-name="Path 1123" d="M426.283,3498.3s2.029-1.365,8.072,1.806,9.511,2.873,11.492,6.142,4.656,16.5,4.359,30.96.1,24.074.793,26.452-2.576,12.087-2.576,12.087l-20.4-18.427s3.406-13.325,3.8-16.694-1.387-32.408-1.387-32.408,1.61-4.458-1.065-6.44S426.283,3498.3,426.283,3498.3Z" transform="translate(-337.46 -3441.009)" fill="url(#linear-gradient-4)"/>
      <path id="Path_1125" data-name="Path 1125" d="M312.732,3707.733a27.077,27.077,0,0,1-2.807,5.449c-1.651,2.312-1.981,5.284-1.321,8.421s2.147,3.137,5.779.991,5.449-3.137,9.742-3.468,14.2-3.963,14.2-3.963Z" transform="translate(-292.525 -3520.872)" fill="#ffc6d1"/>
      <path id="Path_1126" data-name="Path 1126" d="M407.978,3700.9s6.832,6.915,19.381,7.08,13.21-2.146,15.851,1.321c0,0,10.9-3.8,15.191,0s8.421,8.256,8.586,9.577-1.321,1.321-1.981,2.972,1.486,3.632-.991,5.614-2.972-1.651-13.54-2.312-30.877-2.477-48.875-6.274Z" transform="translate(-328.06 -3518.27)" fill="#ffc6d1"/>
      <path id="Path_1124" data-name="Path 1124" d="M312.121,3658.588s-7.1.66-10.733,0-14.2-.166-17.007,7.1-2.477,12.879,6.77,18,60.433,18.163,61.92,19.154,2.312,1.652,2.312,1.652l6.935-18.989s8.628,11.806,36.037,4.706,25.222-11.146,24.892-20.558-11.393-14.7-22.291-12.384-24.107,3.8-24.107,3.8Z" transform="translate(-282.833 -3501.448)" fill="url(#linear-gradient-8)"/>
      <path id="Path_1127" data-name="Path 1127" d="M351.45,3679l18.576,7.431,26.625-6.316Z" transform="translate(-308.963 -3509.929)" fill="#0088cf"/>
      <rect id="Rectangle_522" data-name="Rectangle 522" width="82.972" height="56.966" rx="4" transform="matrix(1, 0.017, -0.017, 1, 28.433, 112.622)" fill="#fb0"/>
      <line id="Line_1" data-name="Line 1" x2="17.337" y2="6.811" transform="translate(62.332 176.809)" fill="none" stroke="#0088cf" stroke-width="1"/>
      <circle id="Ellipse_273" data-name="Ellipse 273" cx="7" cy="7" r="7" transform="translate(63.188 134.746)" fill="#fff"/>
    </g>
  </g>
</svg>
